<?xml version="1.0" ?><!DOCTYPE svg  PUBLIC '-//W3C//DTD SVG 1.1//EN'  'http://www.w3.org/Graphics/SVG/1.1/DTD/svg11.dtd'><svg baseProfile="full" height="42px" version="1.1" width="60px" xmlns="http://www.w3.org/2000/svg" xmlns:ev="http://www.w3.org/2001/xml-events" xmlns:xlink="http://www.w3.org/1999/xlink"><path d="M56.1320000000001,30.5359999999999 C54.4670000000001,32.22 52.1790000000001,33.05 49.691,32.86 C43.2929999999999,32.386 41.7270000000001,26.025 41.136,23.47 C39.8340000000001,24.0359999999999 38.6389999999999,24.326 37.3230000000001,24.522 C37.2940000000001,26.8680000000001 37.874,28.8390000000001 38.393,30.6 C38.809,32.014 39.203,33.35 39.24,34.697 C39.248,34.95 39.4400000000001,35.442 39.6099999999999,35.875 C40.0830000000001,37.08 41.066,39.586 38.3969999999999,40.649 C37.086,41.173 35.0170000000001,41.25 32.7239999999999,40.865 C32.001,40.744 31.422,40.3869999999999 31.0509999999999,39.831 C30.2270000000001,38.598 30.6569999999999,36.7329999999999 30.971,35.37 L30.9839999999999,35.313 C30.896,34.605 29.8399999999999,32.949 29.1310000000001,31.8390000000001 C28.7190000000001,31.194 28.3209999999999,30.5700000000001 28.0029999999999,30.001 C24.914,31.6319999999999 21.029,31.456 18.6089999999999,31.352 C17.952,31.323 17.1559999999999,31.288 16.798,31.325 C16.3499999999999,31.899 15.8389999999999,32.45 15.3430000000001,32.986 C14.7049999999999,33.673 13.518,34.953 13.597,35.345 C13.6510000000001,35.467 13.7329999999999,35.6130000000001 13.8230000000001,35.778 C14.3119999999999,36.675 15.1310000000001,38.174 14.5129999999999,39.758 C14.3630000000001,40.143 13.971,41.148 10.0709999999999,41.148 C9.02199999999993,41.148 7.72000000000003,41.074 6.09999999999991,40.898 C5.72399999999993,40.857 5.404,40.6079999999999 5.27099999999996,40.254 C5.24399999999991,40.181 4.59400000000005,38.414 4.73199999999997,35.865 C4.875,33.237 5.21199999999999,31.269 5.48199999999997,29.686 C5.75099999999998,28.107 5.96499999999992,26.859 5.8599999999999,25.667 C5.85899999999992,25.655 5.85799999999995,25.643 5.85699999999997,25.631 C5.43200000000002,25.717 4.98399999999992,25.711 4.5630000000001,25.548 C3.97499999999991,25.3200000000001 3.56700000000001,24.831 3.41499999999996,24.174 C3.38300000000004,24.033 0.29099999999994,9.99900000000002 11.836,5.065 C15.6120000000001,3.44999999999999 20.046,3.58300000000003 23.2829999999999,3.68000000000001 C24.8499999999999,3.72899999999999 26.979,3.791 27.472,3.46800000000002 C29.3430000000001,1.25299999999999 31.739,0.13999999999999 34.2560000000001,0.298 C36.567,0.45499999999998 38.758,1.69400000000002 40.0719999999999,3.56099999999998 C40.337,3.625 40.643,3.68700000000001 40.982,3.75400000000002 C43.902,4.33999999999998 49.3389999999999,5.43000000000001 50.2819999999999,13.979 C50.4010000000001,15.053 50.2429999999999,16.57 50.0599999999999,18.329 C49.787,20.957 49.413,24.557 50.3309999999999,25.687 C50.4770000000001,25.865 50.6420000000001,25.952 50.8810000000001,25.977 C52.1559999999999,26.11 53.376,25.783 54.3900000000001,20.462 C54.4680000000001,20.051 54.7940000000001,19.732 55.2080000000001,19.663 C55.231,19.659 57.5219999999999,19.332 58.4480000000001,20.053 C58.732,20.274 58.904,20.582 58.934,20.922 C59.2750000000001,24.951 58.28,28.365 56.1320000000001,30.5359999999999 ZM56.9770000000001,21.615 C56.761,21.592 56.481,21.579 56.2049999999999,21.585 C55.442,25.207 54.172,28.322 50.6769999999999,27.967 C49.914,27.888 49.2570000000001,27.5359999999999 48.779,26.947 C47.338,25.174 47.71,21.589 48.0709999999999,18.122 C48.2349999999999,16.547 48.3889999999999,15.059 48.2940000000001,14.197 C47.511,7.10399999999999 43.51,6.30099999999999 40.5889999999999,5.71499999999998 C40.066,5.61099999999999 39.5719999999999,5.512 39.1510000000001,5.38099999999997 C38.921,5.31 38.7249999999999,5.15800000000002 38.598,4.95400000000001 C37.6669999999999,3.459 35.9100000000001,2.41500000000002 34.1210000000001,2.29399999999998 C32.8030000000001,2.20100000000002 30.8309999999999,2.56900000000002 28.9680000000001,4.79899999999998 C27.1389999999999,7.38099999999997 26.7470000000001,10.355 27.8969999999999,12.966 C28.8050000000001,15.026 30.5340000000001,16.446 32.4100000000001,16.674 C32.9580000000001,16.741 33.3489999999999,17.239 33.2819999999999,17.788 C33.22,18.295 32.789,18.667 32.29,18.667 C32.25,18.667 32.2090000000001,18.665 32.1690000000001,18.66 C29.595,18.347 27.258,16.475 26.067,13.773 C24.9290000000001,11.188 24.9960000000001,8.34500000000003 26.175,5.70100000000002 C25.3430000000001,5.73899999999998 24.367,5.714 23.223,5.67899999999997 C20.0039999999999,5.58699999999999 15.9939999999999,5.46199999999999 12.6220000000001,6.904 C2.87400000000002,11.069 5.19499999999994,22.922 5.35699999999997,23.687 C5.48800000000006,23.68 5.7360000000001,23.6130000000001 5.99399999999991,23.436 C6.29299999999989,23.232 6.67800000000011,23.203 7.00399999999991,23.3630000000001 C7.32899999999995,23.524 7.54199999999992,23.848 7.55899999999997,24.21 C7.56700000000001,24.369 7.5809999999999,24.419 7.58200000000011,24.421 C7.70399999999995,24.682 7.80300000000011,24.931 7.85300000000007,25.4930000000001 C7.98000000000002,26.943 7.74800000000005,28.302 7.45299999999997,30.023 C7.19100000000003,31.555 6.86599999999999,33.461 6.73000000000002,35.973 C6.6579999999999,37.293 6.83799999999997,38.359 6.98299999999995,38.976 C9.53400000000011,39.205 12.0219999999999,39.1660000000001 12.6969999999999,38.878 C12.8599999999999,38.189 12.4059999999999,37.357 12.068,36.737 C11.9480000000001,36.518 11.8420000000001,36.3200000000001 11.769,36.155 C11.0899999999999,34.629 12.443,33.17 13.876,31.625 C14.393,31.068 14.9259999999999,30.4930000000001 15.3440000000001,29.9349999999999 C19.0719999999999,24.79 17.115,19.93 17.03,19.725 C16.818,19.217 17.057,18.631 17.5640000000001,18.417 C18.0699999999999,18.203 18.6559999999999,18.438 18.8720000000001,18.945 C18.9659999999999,19.166 20.9079999999999,23.93 18.0599999999999,29.327 C18.26,29.3339999999999 18.471,29.343 18.6980000000001,29.354 C21.079,29.461 24.566,29.595 27.1679999999999,28.154 L26.0119999999999,25.316 C25.8040000000001,24.805 26.05,24.221 26.5609999999999,24.013 C27.0719999999999,23.801 27.6559999999999,24.049 27.865,24.562 L29.346,28.197 C29.348,28.203 29.347,28.208 29.3489999999999,28.213 C29.3499999999999,28.217 29.354,28.22 29.356,28.224 C29.5830000000001,28.828 30.21,29.812 30.817,30.763 C31.9349999999999,32.514 32.99,34.167 32.99,35.401 C32.99,35.476 32.982,35.55 32.9649999999999,35.623 L32.9200000000001,35.819 C32.7280000000001,36.653 32.3699999999999,38.205 32.7139999999999,38.72 C32.7429999999999,38.763 32.8009999999999,38.851 33.0550000000001,38.893 C34.9400000000001,39.2089999999999 36.704,39.17 37.6569999999999,38.792 C38.28,38.543 38.444,38.38 37.749,36.606 C37.4960000000001,35.963 37.258,35.356 37.241,34.754 C37.211,33.665 36.8689999999999,32.506 36.4739999999999,31.165 C35.8510000000001,29.048 35.146,26.649 35.3620000000001,23.5890000000001 C35.3620000000001,23.587 35.3610000000001,23.585 35.3610000000001,23.583 C35.3620000000001,23.58 35.3620000000001,23.575 35.3620000000001,23.572 C35.3620000000001,23.5700000000001 35.3620000000001,23.569 35.3620000000001,23.568 C35.3620000000001,23.567 35.3630000000001,23.566 35.3630000000001,23.566 C35.3910000000001,23.088 35.4590000000001,22.464 35.518,21.922 L35.5809999999999,21.333 C35.636,20.784 36.1179999999999,20.396 36.6759999999999,20.438 C37.2249999999999,20.492 37.626,20.983 37.5709999999999,21.532 L37.5060000000001,22.141 C37.4939999999999,22.246 37.4829999999999,22.36 37.471,22.47 C38.5419999999999,22.287 39.519,22.005 40.586,21.513 C40.4880000000001,20.958 40.367,20.177 40.299,19.361 C40.2529999999999,18.81 40.663,18.326 41.213,18.281 C41.7629999999999,18.219 42.2470000000001,18.644 42.2929999999999,19.195 C42.375,20.185 42.549,21.155 42.6369999999999,21.605 C42.8099999999999,21.891 42.915,22.287 43.057,22.901 C43.923,26.654 45.4059999999999,30.537 49.8389999999999,30.865 C51.768,31.011 53.4449999999999,30.407 54.711,29.129 C56.3510000000001,27.472 57.1479999999999,24.818 56.9770000000001,21.615 ZM42.3710000000001,14.372 C42.0350000000001,14.372 41.7070000000001,14.203 41.518,13.897 C41.3530000000001,13.628 40.8109999999999,13.404 40.498,13.338 C39.96,13.224 39.6120000000001,12.696 39.723,12.157 C39.8340000000001,11.618 40.3510000000001,11.265 40.895,11.378 C41.0609999999999,11.411 42.5350000000001,11.733 43.221,12.848 C43.511,13.319 43.364,13.934 42.894,14.224 C42.731,14.324 42.549,14.372 42.3710000000001,14.372 ZM35.432,7.493 C34.4970000000001,7.18599999999998 34.0450000000001,8.06599999999997 33.8599999999999,8.618 C33.5229999999999,9.62599999999998 33.6780000000001,10.933 34.442,11.194 C34.9639999999999,11.372 35.2429999999999,11.941 35.0640000000001,12.463 C34.922,12.879 34.5340000000001,13.14 34.1179999999999,13.14 C34.011,13.14 33.902,13.122 33.7950000000001,13.086 C31.806,12.405 31.3019999999999,9.95699999999999 31.9639999999999,7.983 C32.6379999999999,5.971 34.279,5.01100000000002 36.056,5.59300000000002 C36.5809999999999,5.76600000000002 36.867,6.32999999999998 36.694,6.85500000000002 C36.5219999999999,7.37900000000002 35.9570000000001,7.66699999999997 35.432,7.493 Z " fill="#ffffff"/></svg>